<?xml version="1.0" encoding="UTF-8" standalone="no"?>
<svg
   xmlns:dc="http://purl.org/dc/elements/1.1/"
   xmlns:cc="http://creativecommons.org/ns#"
   xmlns:rdf="http://www.w3.org/1999/02/22-rdf-syntax-ns#"
   xmlns:svg="http://www.w3.org/2000/svg"
   xmlns="http://www.w3.org/2000/svg"
   id="svg2"
   version="1.1"
   width="680"
   height="680"
   viewBox="0 0 680.0000 680.0000">
  <metadata
     id="metadata30">
    <rdf:RDF>
      <cc:Work
         rdf:about="">
        <dc:format>image/svg+xml</dc:format>
        <dc:type
           rdf:resource="http://purl.org/dc/dcmitype/StillImage" />
        <dc:title></dc:title>
      </cc:Work>
    </rdf:RDF>
  </metadata>
  <defs
     id="defs28" />
  <g
     style="opacity:1"
     id="g4"
     transform="translate(90.001,-372.357)">
    <g
       style=""
       id="g6"
       transform="translate(184.86,278.83)">
      <g
         style="fill-rule:evenodd"
         id="g8">
        <path
           style="fill:#00ccff"
           id="path10"
           d="m 65.139,271.86 73.334,73.334 0,-250 a 250,250 0 0 1 -0.62695,17.684 250,250 0 0 1 -3.0098,24.809 250,250 0 0 1 -5.4746,24.383 250,250 0 0 1 -7.8789,23.715 250,250 0 0 1 -10.207,22.809 250,250 0 0 1 -12.436,21.678 250,250 0 0 1 -14.535,20.326 250,250 0 0 1 -16.492,18.774 250,250 0 0 1 -2.6738,2.4902 z" />
        <path
           style="fill:#33ff99"
           id="path12"
           d="m -184.86,271.86 250,0 -73.334,-73.334 a 250,250 0 0 1 -15.611,14.545 250,250 0 0 1 -19.894,15.123 250,250 0 0 1 -21.305,13.062 250,250 0 0 1 -22.5,10.869 250,250 0 0 1 -23.475,8.5684 250,250 0 0 1 -24.213,6.1836 250,250 0 0 1 -24.709,3.7343 250,250 0 0 1 -24.959,1.2481 z" />
        <path
           style="fill:#3399ff"
           id="path14"
           d="m 65.137,521.86 0,-250 -73.334,73.334 a 250,250 0 0 1 14.545,15.611 250,250 0 0 1 15.123,19.894 250,250 0 0 1 13.062,21.305 250,250 0 0 1 10.869,22.5 250,250 0 0 1 8.5684,23.475 250,250 0 0 1 6.1836,24.213 250,250 0 0 1 3.7343,24.709 250,250 0 0 1 1.2481,24.959 z" />
        <path
           style="fill:#6765ff"
           id="path16"
           d="m -184.86,271.86 a 250,250 0 0 1 17.684,0.6269 250,250 0 0 1 24.809,3.0098 250,250 0 0 1 24.383,5.4746 250,250 0 0 1 23.715,7.8789 250,250 0 0 1 22.809,10.207 250,250 0 0 1 21.678,12.436 250,250 0 0 1 20.326,14.535 250,250 0 0 1 18.773,16.492 250,250 0 0 1 2.4903,2.6739 l 73.334,-73.334 -250,0 z" />
        <path
           style="fill:#ff6666"
           id="path18"
           d="m 65.137,521.86 0,250 a 250,250 0 0 1 0.6269,-17.684 250,250 0 0 1 3.0098,-24.809 250,250 0 0 1 5.4746,-24.383 250,250 0 0 1 7.8789,-23.715 250,250 0 0 1 10.207,-22.809 250,250 0 0 1 12.436,-21.678 250,250 0 0 1 14.535,-20.326 250,250 0 0 1 16.492,-18.773 250,250 0 0 1 2.6738,-2.4902 l -73.334,-73.334 z" />
        <path
           style="fill:#ffcc00"
           id="path20"
           d="m 138.47,448.53 -73.334,73.334 250,0 a 250,250 0 0 1 -17.684,-0.627 250,250 0 0 1 -24.809,-3.0097 250,250 0 0 1 -24.383,-5.4747 250,250 0 0 1 -23.715,-7.8789 250,250 0 0 1 -22.809,-10.207 250,250 0 0 1 -21.678,-12.436 250,250 0 0 1 -20.326,-14.535 250,250 0 0 1 -18.773,-16.492 250,250 0 0 1 -2.4902,-2.6738 z" />
        <path
           style="fill:#ff9933"
           id="path22"
           d="m 65.137,271.86 0,250 73.334,-73.334 A 250,250 0 0 1 123.926,432.915 250,250 0 0 1 108.803,413.02 250,250 0 0 1 95.741,391.715 250,250 0 0 1 84.872,369.215 250,250 0 0 1 76.3036,345.74 250,250 0 0 1 70.12,321.527 250,250 0 0 1 66.3856,296.818 250,250 0 0 1 65.1376,271.859 Z" />
        <path
           style="fill:#ff3399"
           id="path24"
           d="m 65.137,521.86 73.334,73.334 a 250,250 0 0 1 15.611,-14.545 250,250 0 0 1 19.895,-15.123 250,250 0 0 1 21.305,-13.062 250,250 0 0 1 22.5,-10.869 250,250 0 0 1 23.475,-8.5684 250,250 0 0 1 24.213,-6.1836 250,250 0 0 1 24.709,-3.7344 250,250 0 0 1 24.959,-1.248 l -250,0 z" />
      </g>
    </g>
  </g>
</svg>
